<mxfile host="Electron" agent="Mozilla/5.0 (Windows NT 10.0; Win64; x64) AppleWebKit/537.36 (KHTML, like Gecko) draw.io/24.7.8 Chrome/128.0.6613.36 Electron/32.0.1 Safari/537.36" version="24.7.8">
  <diagram name="PÃ¡gina-1" id="tULwb6cwInRSYcNm1W4O">
    <mxGraphModel dx="592" dy="346" grid="1" gridSize="10" guides="1" tooltips="1" connect="1" arrows="1" fold="1" page="1" pageScale="1" pageWidth="827" pageHeight="1169" background="#ffffff" math="0" shadow="0">
      <root>
        <mxCell id="0" />
        <mxCell id="1" parent="0" />
        <mxCell id="D2A4vbr5BBzfwMiu7smM-7" value="" style="group" parent="1" vertex="1" connectable="0">
          <mxGeometry x="45" y="40" width="50" height="80" as="geometry" />
        </mxCell>
        <mxCell id="D2A4vbr5BBzfwMiu7smM-1" value="" style="rounded=0;whiteSpace=wrap;html=1;fillColor=#CCCCCC;strokeColor=#000000;" parent="D2A4vbr5BBzfwMiu7smM-7" vertex="1">
          <mxGeometry x="10" width="40" height="80" as="geometry" />
        </mxCell>
        <mxCell id="D2A4vbr5BBzfwMiu7smM-2" value="&lt;i&gt;&lt;font face=&quot;Times New Roman&quot;&gt;D&lt;/font&gt;&lt;/i&gt;" style="text;html=1;align=center;verticalAlign=middle;resizable=0;points=[];autosize=1;fontColor=#000000;" parent="D2A4vbr5BBzfwMiu7smM-7" vertex="1">
          <mxGeometry y="-1" width="30" height="30" as="geometry" />
        </mxCell>
        <mxCell id="D2A4vbr5BBzfwMiu7smM-5" value="&lt;i&gt;&lt;font face=&quot;Times New Roman&quot;&gt;C&lt;/font&gt;&lt;/i&gt;" style="text;html=1;align=center;verticalAlign=middle;resizable=0;points=[];autosize=1;fontColor=#000000;" parent="D2A4vbr5BBzfwMiu7smM-7" vertex="1">
          <mxGeometry x="10" y="30" width="30" height="30" as="geometry" />
        </mxCell>
        <mxCell id="D2A4vbr5BBzfwMiu7smM-6" value="" style="triangle;whiteSpace=wrap;html=1;fillColor=none;strokeColor=#000000;" parent="D2A4vbr5BBzfwMiu7smM-7" vertex="1">
          <mxGeometry x="10" y="40" width="10" height="10" as="geometry" />
        </mxCell>
        <mxCell id="D2A4vbr5BBzfwMiu7smM-8" value="" style="group" parent="1" vertex="1" connectable="0">
          <mxGeometry x="115" y="40" width="50" height="80" as="geometry" />
        </mxCell>
        <mxCell id="D2A4vbr5BBzfwMiu7smM-9" value="" style="rounded=0;whiteSpace=wrap;html=1;fillColor=#CCCCCC;strokeColor=#000000;" parent="D2A4vbr5BBzfwMiu7smM-8" vertex="1">
          <mxGeometry x="10" width="40" height="80" as="geometry" />
        </mxCell>
        <mxCell id="D2A4vbr5BBzfwMiu7smM-10" value="&lt;font face=&quot;Times New Roman&quot;&gt;&lt;i style=&quot;&quot;&gt;D&lt;/i&gt;&lt;/font&gt;" style="text;html=1;align=center;verticalAlign=middle;resizable=0;points=[];autosize=1;fontColor=#000000;" parent="D2A4vbr5BBzfwMiu7smM-8" vertex="1">
          <mxGeometry width="30" height="30" as="geometry" />
        </mxCell>
        <mxCell id="D2A4vbr5BBzfwMiu7smM-11" value="&lt;i&gt;&lt;font face=&quot;Times New Roman&quot;&gt;C&lt;/font&gt;&lt;/i&gt;" style="text;html=1;align=center;verticalAlign=middle;resizable=0;points=[];autosize=1;fontColor=#000000;" parent="D2A4vbr5BBzfwMiu7smM-8" vertex="1">
          <mxGeometry x="10" y="30" width="30" height="30" as="geometry" />
        </mxCell>
        <mxCell id="D2A4vbr5BBzfwMiu7smM-12" value="" style="triangle;whiteSpace=wrap;html=1;fillColor=none;strokeColor=#000000;" parent="D2A4vbr5BBzfwMiu7smM-8" vertex="1">
          <mxGeometry x="10" y="40" width="10" height="10" as="geometry" />
        </mxCell>
        <mxCell id="D2A4vbr5BBzfwMiu7smM-24" value="" style="endArrow=none;html=1;rounded=0;strokeColor=#000000;entryX=0;entryY=0.5;entryDx=0;entryDy=0;endFill=0;startArrow=oval;startFill=1;" parent="D2A4vbr5BBzfwMiu7smM-8" target="D2A4vbr5BBzfwMiu7smM-12" edge="1">
          <mxGeometry width="50" height="50" relative="1" as="geometry">
            <mxPoint y="100" as="sourcePoint" />
            <mxPoint x="10" y="40" as="targetPoint" />
            <Array as="points">
              <mxPoint y="45" />
            </Array>
          </mxGeometry>
        </mxCell>
        <mxCell id="D2A4vbr5BBzfwMiu7smM-13" value="" style="group" parent="1" vertex="1" connectable="0">
          <mxGeometry x="185" y="40" width="50" height="80" as="geometry" />
        </mxCell>
        <mxCell id="D2A4vbr5BBzfwMiu7smM-14" value="" style="rounded=0;whiteSpace=wrap;html=1;fillColor=#CCCCCC;strokeColor=#000000;" parent="D2A4vbr5BBzfwMiu7smM-13" vertex="1">
          <mxGeometry x="10" width="40" height="80" as="geometry" />
        </mxCell>
        <mxCell id="D2A4vbr5BBzfwMiu7smM-15" value="&lt;i&gt;&lt;font face=&quot;Times New Roman&quot;&gt;D&lt;/font&gt;&lt;/i&gt;" style="text;html=1;align=center;verticalAlign=middle;resizable=0;points=[];autosize=1;fontColor=#000000;" parent="D2A4vbr5BBzfwMiu7smM-13" vertex="1">
          <mxGeometry width="30" height="30" as="geometry" />
        </mxCell>
        <mxCell id="D2A4vbr5BBzfwMiu7smM-16" value="&lt;i&gt;&lt;font face=&quot;Times New Roman&quot;&gt;C&lt;/font&gt;&lt;/i&gt;" style="text;html=1;align=center;verticalAlign=middle;resizable=0;points=[];autosize=1;fontColor=#000000;" parent="D2A4vbr5BBzfwMiu7smM-13" vertex="1">
          <mxGeometry x="10" y="30" width="30" height="30" as="geometry" />
        </mxCell>
        <mxCell id="D2A4vbr5BBzfwMiu7smM-17" value="" style="triangle;whiteSpace=wrap;html=1;fillColor=none;strokeColor=#000000;" parent="D2A4vbr5BBzfwMiu7smM-13" vertex="1">
          <mxGeometry x="10" y="40" width="10" height="10" as="geometry" />
        </mxCell>
        <mxCell id="D2A4vbr5BBzfwMiu7smM-25" value="" style="endArrow=none;html=1;rounded=0;strokeColor=#000000;entryX=0;entryY=0.5;entryDx=0;entryDy=0;startArrow=oval;startFill=1;" parent="D2A4vbr5BBzfwMiu7smM-13" target="D2A4vbr5BBzfwMiu7smM-17" edge="1">
          <mxGeometry width="50" height="50" relative="1" as="geometry">
            <mxPoint y="100" as="sourcePoint" />
            <mxPoint x="10" y="50" as="targetPoint" />
            <Array as="points">
              <mxPoint y="45" />
            </Array>
          </mxGeometry>
        </mxCell>
        <mxCell id="D2A4vbr5BBzfwMiu7smM-32" value="" style="endArrow=none;html=1;rounded=0;strokeColor=#000000;" parent="D2A4vbr5BBzfwMiu7smM-13" edge="1">
          <mxGeometry width="50" height="50" relative="1" as="geometry">
            <mxPoint x="-20" y="15" as="sourcePoint" />
            <mxPoint x="10" y="15" as="targetPoint" />
          </mxGeometry>
        </mxCell>
        <mxCell id="D2A4vbr5BBzfwMiu7smM-18" value="" style="group" parent="1" vertex="1" connectable="0">
          <mxGeometry x="255" y="40" width="50" height="90" as="geometry" />
        </mxCell>
        <mxCell id="D2A4vbr5BBzfwMiu7smM-19" value="" style="rounded=0;whiteSpace=wrap;html=1;fillColor=#CCCCCC;strokeColor=#000000;" parent="D2A4vbr5BBzfwMiu7smM-18" vertex="1">
          <mxGeometry x="10" width="40" height="90" as="geometry" />
        </mxCell>
        <mxCell id="D2A4vbr5BBzfwMiu7smM-20" value="&lt;font face=&quot;Times New Roman&quot;&gt;&lt;i&gt;D&lt;/i&gt;&lt;/font&gt;" style="text;html=1;align=center;verticalAlign=middle;resizable=0;points=[];autosize=1;fontColor=#000000;" parent="D2A4vbr5BBzfwMiu7smM-18" vertex="1">
          <mxGeometry width="30" height="30" as="geometry" />
        </mxCell>
        <mxCell id="D2A4vbr5BBzfwMiu7smM-21" value="&lt;i&gt;&lt;font face=&quot;Times New Roman&quot;&gt;C&lt;/font&gt;&lt;/i&gt;" style="text;html=1;align=center;verticalAlign=middle;resizable=0;points=[];autosize=1;fontColor=#000000;" parent="D2A4vbr5BBzfwMiu7smM-18" vertex="1">
          <mxGeometry x="10" y="30" width="30" height="30" as="geometry" />
        </mxCell>
        <mxCell id="D2A4vbr5BBzfwMiu7smM-22" value="" style="triangle;whiteSpace=wrap;html=1;fillColor=none;strokeColor=#000000;" parent="D2A4vbr5BBzfwMiu7smM-18" vertex="1">
          <mxGeometry x="10" y="40" width="10" height="10" as="geometry" />
        </mxCell>
        <mxCell id="D2A4vbr5BBzfwMiu7smM-26" value="" style="endArrow=none;html=1;rounded=0;strokeColor=#000000;entryX=0;entryY=0.5;entryDx=0;entryDy=0;" parent="D2A4vbr5BBzfwMiu7smM-18" target="D2A4vbr5BBzfwMiu7smM-22" edge="1">
          <mxGeometry width="50" height="50" relative="1" as="geometry">
            <mxPoint y="100" as="sourcePoint" />
            <mxPoint x="10" y="50" as="targetPoint" />
            <Array as="points">
              <mxPoint y="45" />
            </Array>
          </mxGeometry>
        </mxCell>
        <mxCell id="D2A4vbr5BBzfwMiu7smM-23" value="" style="endArrow=none;html=1;rounded=0;strokeColor=#000000;entryX=0;entryY=0.5;entryDx=0;entryDy=0;startArrow=oval;startFill=1;" parent="1" target="D2A4vbr5BBzfwMiu7smM-6" edge="1">
          <mxGeometry width="50" height="50" relative="1" as="geometry">
            <mxPoint x="45" y="140" as="sourcePoint" />
            <mxPoint x="55" y="90" as="targetPoint" />
            <Array as="points">
              <mxPoint x="45" y="85" />
            </Array>
          </mxGeometry>
        </mxCell>
        <mxCell id="D2A4vbr5BBzfwMiu7smM-29" value="" style="endArrow=none;html=1;rounded=0;strokeColor=#000000;" parent="1" edge="1">
          <mxGeometry width="50" height="50" relative="1" as="geometry">
            <mxPoint x="25" y="140" as="sourcePoint" />
            <mxPoint x="255" y="140" as="targetPoint" />
          </mxGeometry>
        </mxCell>
        <mxCell id="D2A4vbr5BBzfwMiu7smM-30" value="" style="endArrow=none;html=1;rounded=0;strokeColor=#000000;" parent="1" edge="1">
          <mxGeometry width="50" height="50" relative="1" as="geometry">
            <mxPoint x="25" y="55" as="sourcePoint" />
            <mxPoint x="55" y="55" as="targetPoint" />
          </mxGeometry>
        </mxCell>
        <mxCell id="D2A4vbr5BBzfwMiu7smM-31" value="" style="endArrow=none;html=1;rounded=0;strokeColor=#000000;" parent="1" edge="1">
          <mxGeometry width="50" height="50" relative="1" as="geometry">
            <mxPoint x="95" y="55" as="sourcePoint" />
            <mxPoint x="125" y="55" as="targetPoint" />
          </mxGeometry>
        </mxCell>
        <mxCell id="D2A4vbr5BBzfwMiu7smM-33" value="" style="endArrow=none;html=1;rounded=0;strokeColor=#000000;" parent="1" edge="1">
          <mxGeometry width="50" height="50" relative="1" as="geometry">
            <mxPoint x="235" y="55" as="sourcePoint" />
            <mxPoint x="265" y="55" as="targetPoint" />
          </mxGeometry>
        </mxCell>
        <mxCell id="D2A4vbr5BBzfwMiu7smM-36" value="" style="endArrow=none;html=1;rounded=0;strokeColor=#000000;startArrow=oval;startFill=1;" parent="1" edge="1">
          <mxGeometry width="50" height="50" relative="1" as="geometry">
            <mxPoint x="105" y="55" as="sourcePoint" />
            <mxPoint x="105" y="160" as="targetPoint" />
          </mxGeometry>
        </mxCell>
        <mxCell id="D2A4vbr5BBzfwMiu7smM-37" value="" style="endArrow=none;html=1;rounded=0;strokeColor=#000000;startArrow=oval;startFill=1;" parent="1" edge="1">
          <mxGeometry width="50" height="50" relative="1" as="geometry">
            <mxPoint x="175" y="55" as="sourcePoint" />
            <mxPoint x="175" y="160" as="targetPoint" />
          </mxGeometry>
        </mxCell>
        <mxCell id="D2A4vbr5BBzfwMiu7smM-38" value="" style="endArrow=none;html=1;rounded=0;strokeColor=#000000;startArrow=oval;startFill=1;" parent="1" edge="1">
          <mxGeometry width="50" height="50" relative="1" as="geometry">
            <mxPoint x="35" y="55" as="sourcePoint" />
            <mxPoint x="35" y="160" as="targetPoint" />
          </mxGeometry>
        </mxCell>
        <mxCell id="D2A4vbr5BBzfwMiu7smM-39" value="" style="endArrow=none;html=1;rounded=0;strokeColor=#000000;startArrow=oval;startFill=1;" parent="1" edge="1">
          <mxGeometry width="50" height="50" relative="1" as="geometry">
            <mxPoint x="245" y="55" as="sourcePoint" />
            <mxPoint x="245" y="160" as="targetPoint" />
          </mxGeometry>
        </mxCell>
        <mxCell id="D2A4vbr5BBzfwMiu7smM-41" value="&lt;i&gt;&lt;font face=&quot;Times New Roman&quot;&gt;C&lt;/font&gt;&lt;/i&gt;" style="text;html=1;align=center;verticalAlign=middle;resizable=0;points=[];autosize=1;fontColor=#000000;" parent="1" vertex="1">
          <mxGeometry x="20" y="155" width="30" height="30" as="geometry" />
        </mxCell>
        <mxCell id="D2A4vbr5BBzfwMiu7smM-42" value="&lt;i&gt;&lt;font face=&quot;Times New Roman&quot;&gt;C&lt;/font&gt;&lt;/i&gt;" style="text;html=1;align=center;verticalAlign=middle;resizable=0;points=[];autosize=1;fontColor=#000000;" parent="1" vertex="1">
          <mxGeometry x="90" y="155" width="30" height="30" as="geometry" />
        </mxCell>
        <mxCell id="D2A4vbr5BBzfwMiu7smM-43" value="&lt;i&gt;&lt;font face=&quot;Times New Roman&quot;&gt;C&lt;/font&gt;&lt;/i&gt;" style="text;html=1;align=center;verticalAlign=middle;resizable=0;points=[];autosize=1;fontColor=#000000;" parent="1" vertex="1">
          <mxGeometry x="160" y="155" width="30" height="30" as="geometry" />
        </mxCell>
        <mxCell id="D2A4vbr5BBzfwMiu7smM-44" value="&lt;i&gt;&lt;font face=&quot;Times New Roman&quot;&gt;C&lt;/font&gt;&lt;/i&gt;" style="text;html=1;align=center;verticalAlign=middle;resizable=0;points=[];autosize=1;fontColor=#000000;" parent="1" vertex="1">
          <mxGeometry x="230" y="154" width="30" height="30" as="geometry" />
        </mxCell>
        <mxCell id="D2A4vbr5BBzfwMiu7smM-45" value="&lt;font color=&quot;#000000&quot; face=&quot;Times New Roman&quot;&gt;&lt;i&gt;0&lt;/i&gt;&lt;/font&gt;" style="rounded=0;whiteSpace=wrap;html=1;strokeColor=#000000;fillColor=#FFFFFF;" parent="1" vertex="1">
          <mxGeometry x="390" y="181" width="20" height="20" as="geometry" />
        </mxCell>
        <mxCell id="D2A4vbr5BBzfwMiu7smM-65" value="&lt;font color=&quot;#000000&quot; face=&quot;Times New Roman&quot;&gt;&lt;i&gt;0&lt;/i&gt;&lt;/font&gt;" style="rounded=0;whiteSpace=wrap;html=1;strokeColor=#000000;fillColor=#FFFFFF;" parent="1" vertex="1">
          <mxGeometry x="410" y="181" width="20" height="20" as="geometry" />
        </mxCell>
        <mxCell id="D2A4vbr5BBzfwMiu7smM-66" value="&lt;font color=&quot;#000000&quot; face=&quot;Times New Roman&quot;&gt;&lt;i&gt;0&lt;/i&gt;&lt;/font&gt;" style="rounded=0;whiteSpace=wrap;html=1;strokeColor=#000000;fillColor=#FFFFFF;" parent="1" vertex="1">
          <mxGeometry x="430" y="181" width="20" height="20" as="geometry" />
        </mxCell>
        <mxCell id="D2A4vbr5BBzfwMiu7smM-67" value="&lt;font color=&quot;#000000&quot; face=&quot;Times New Roman&quot;&gt;&lt;i&gt;0&lt;/i&gt;&lt;/font&gt;" style="rounded=0;whiteSpace=wrap;html=1;strokeColor=#000000;fillColor=#FFFFFF;" parent="1" vertex="1">
          <mxGeometry x="450" y="181" width="20" height="20" as="geometry" />
        </mxCell>
        <mxCell id="D2A4vbr5BBzfwMiu7smM-68" value="&lt;font color=&quot;#000000&quot; face=&quot;Times New Roman&quot;&gt;&lt;i&gt;1&lt;/i&gt;&lt;/font&gt;" style="rounded=0;whiteSpace=wrap;html=1;strokeColor=#000000;fillColor=#E6E6E6;" parent="1" vertex="1">
          <mxGeometry x="390" y="201" width="20" height="20" as="geometry" />
        </mxCell>
        <mxCell id="D2A4vbr5BBzfwMiu7smM-69" value="&lt;font color=&quot;#000000&quot; face=&quot;Times New Roman&quot;&gt;&lt;i&gt;0&lt;/i&gt;&lt;/font&gt;" style="rounded=0;whiteSpace=wrap;html=1;strokeColor=#000000;fillColor=#FFFFFF;" parent="1" vertex="1">
          <mxGeometry x="410" y="201" width="20" height="20" as="geometry" />
        </mxCell>
        <mxCell id="D2A4vbr5BBzfwMiu7smM-70" value="&lt;font color=&quot;#000000&quot; face=&quot;Times New Roman&quot;&gt;&lt;i&gt;0&lt;/i&gt;&lt;/font&gt;" style="rounded=0;whiteSpace=wrap;html=1;strokeColor=#000000;fillColor=#FFFFFF;" parent="1" vertex="1">
          <mxGeometry x="430" y="201" width="20" height="20" as="geometry" />
        </mxCell>
        <mxCell id="D2A4vbr5BBzfwMiu7smM-71" value="&lt;font color=&quot;#000000&quot; face=&quot;Times New Roman&quot;&gt;&lt;i&gt;0&lt;/i&gt;&lt;/font&gt;" style="rounded=0;whiteSpace=wrap;html=1;strokeColor=#000000;fillColor=#FFFFFF;" parent="1" vertex="1">
          <mxGeometry x="450" y="201" width="20" height="20" as="geometry" />
        </mxCell>
        <mxCell id="D2A4vbr5BBzfwMiu7smM-72" value="&lt;font color=&quot;#000000&quot; face=&quot;Times New Roman&quot;&gt;&lt;i&gt;0&lt;/i&gt;&lt;/font&gt;" style="rounded=0;whiteSpace=wrap;html=1;strokeColor=#000000;fillColor=#E6E6E6;" parent="1" vertex="1">
          <mxGeometry x="390" y="51" width="20" height="20" as="geometry" />
        </mxCell>
        <mxCell id="D2A4vbr5BBzfwMiu7smM-73" value="&lt;font color=&quot;#000000&quot; face=&quot;Times New Roman&quot;&gt;&lt;i&gt;1&lt;/i&gt;&lt;/font&gt;" style="rounded=0;whiteSpace=wrap;html=1;strokeColor=#000000;fillColor=#E6E6E6;" parent="1" vertex="1">
          <mxGeometry x="410" y="51" width="20" height="20" as="geometry" />
        </mxCell>
        <mxCell id="D2A4vbr5BBzfwMiu7smM-74" value="&lt;font color=&quot;#000000&quot; face=&quot;Times New Roman&quot;&gt;&lt;i&gt;0&lt;/i&gt;&lt;/font&gt;" style="rounded=0;whiteSpace=wrap;html=1;strokeColor=#000000;fillColor=#FFFFFF;" parent="1" vertex="1">
          <mxGeometry x="430" y="51" width="20" height="20" as="geometry" />
        </mxCell>
        <mxCell id="D2A4vbr5BBzfwMiu7smM-75" value="&lt;font color=&quot;#000000&quot; face=&quot;Times New Roman&quot;&gt;&lt;i&gt;0&lt;/i&gt;&lt;/font&gt;" style="rounded=0;whiteSpace=wrap;html=1;strokeColor=#000000;fillColor=#FFFFFF;" parent="1" vertex="1">
          <mxGeometry x="450" y="51" width="20" height="20" as="geometry" />
        </mxCell>
        <mxCell id="D2A4vbr5BBzfwMiu7smM-76" value="&lt;font color=&quot;#000000&quot; face=&quot;Times New Roman&quot;&gt;&lt;i&gt;1&lt;/i&gt;&lt;/font&gt;" style="rounded=0;whiteSpace=wrap;html=1;strokeColor=#000000;fillColor=#E6E6E6;" parent="1" vertex="1">
          <mxGeometry x="390" y="71" width="20" height="20" as="geometry" />
        </mxCell>
        <mxCell id="D2A4vbr5BBzfwMiu7smM-77" value="&lt;font color=&quot;#000000&quot; face=&quot;Times New Roman&quot;&gt;&lt;i&gt;0&lt;/i&gt;&lt;/font&gt;" style="rounded=0;whiteSpace=wrap;html=1;strokeColor=#000000;fillColor=#E6E6E6;" parent="1" vertex="1">
          <mxGeometry x="410" y="71" width="20" height="20" as="geometry" />
        </mxCell>
        <mxCell id="D2A4vbr5BBzfwMiu7smM-78" value="&lt;font color=&quot;#000000&quot; face=&quot;Times New Roman&quot;&gt;&lt;i&gt;1&lt;/i&gt;&lt;/font&gt;" style="rounded=0;whiteSpace=wrap;html=1;strokeColor=#000000;fillColor=#E6E6E6;" parent="1" vertex="1">
          <mxGeometry x="430" y="71" width="20" height="20" as="geometry" />
        </mxCell>
        <mxCell id="D2A4vbr5BBzfwMiu7smM-79" value="&lt;font color=&quot;#000000&quot; face=&quot;Times New Roman&quot;&gt;&lt;i&gt;0&lt;/i&gt;&lt;/font&gt;" style="rounded=0;whiteSpace=wrap;html=1;strokeColor=#000000;fillColor=#FFFFFF;" parent="1" vertex="1">
          <mxGeometry x="450" y="71" width="20" height="20" as="geometry" />
        </mxCell>
        <mxCell id="D2A4vbr5BBzfwMiu7smM-80" value="&lt;font color=&quot;#000000&quot; face=&quot;Times New Roman&quot;&gt;&lt;i&gt;0&lt;/i&gt;&lt;/font&gt;" style="rounded=0;whiteSpace=wrap;html=1;strokeColor=#000000;fillColor=#E6E6E6;" parent="1" vertex="1">
          <mxGeometry x="390" y="91" width="20" height="20" as="geometry" />
        </mxCell>
        <mxCell id="D2A4vbr5BBzfwMiu7smM-81" value="&lt;font color=&quot;#000000&quot; face=&quot;Times New Roman&quot;&gt;&lt;i&gt;1&lt;/i&gt;&lt;/font&gt;" style="rounded=0;whiteSpace=wrap;html=1;strokeColor=#000000;fillColor=#E6E6E6;" parent="1" vertex="1">
          <mxGeometry x="410" y="91" width="20" height="20" as="geometry" />
        </mxCell>
        <mxCell id="D2A4vbr5BBzfwMiu7smM-82" value="&lt;font color=&quot;#000000&quot; face=&quot;Times New Roman&quot;&gt;&lt;i&gt;0&lt;/i&gt;&lt;/font&gt;" style="rounded=0;whiteSpace=wrap;html=1;strokeColor=#000000;fillColor=#E6E6E6;" parent="1" vertex="1">
          <mxGeometry x="430" y="91" width="20" height="20" as="geometry" />
        </mxCell>
        <mxCell id="D2A4vbr5BBzfwMiu7smM-83" value="&lt;font color=&quot;#000000&quot; face=&quot;Times New Roman&quot;&gt;&lt;i&gt;1&lt;/i&gt;&lt;/font&gt;" style="rounded=0;whiteSpace=wrap;html=1;strokeColor=#000000;fillColor=#E6E6E6;" parent="1" vertex="1">
          <mxGeometry x="450" y="91" width="20" height="20" as="geometry" />
        </mxCell>
        <mxCell id="D2A4vbr5BBzfwMiu7smM-85" value="&lt;h1 style=&quot;margin-top: 0px; font-size: 12px;&quot;&gt;0101&lt;/h1&gt;" style="text;html=1;whiteSpace=wrap;overflow=hidden;rounded=0;fontColor=#000000;fontStyle=0;fontFamily=Times New Roman;fontSize=12;verticalAlign=middle;align=right;" parent="1" vertex="1">
          <mxGeometry x="340" y="10" width="30" height="20" as="geometry" />
        </mxCell>
        <mxCell id="D2A4vbr5BBzfwMiu7smM-86" value="&lt;h1 style=&quot;margin-top: 0px; font-size: 12px;&quot;&gt;010&lt;/h1&gt;" style="text;html=1;whiteSpace=wrap;overflow=hidden;rounded=0;fontColor=#000000;fontStyle=0;fontFamily=Times New Roman;fontSize=12;verticalAlign=middle;align=right;" parent="1" vertex="1">
          <mxGeometry x="340" y="30" width="30" height="20" as="geometry" />
        </mxCell>
        <mxCell id="D2A4vbr5BBzfwMiu7smM-87" value="&lt;h1 style=&quot;margin-top: 0px; font-size: 12px;&quot;&gt;01&lt;/h1&gt;" style="text;html=1;whiteSpace=wrap;overflow=hidden;rounded=0;fontColor=#000000;fontStyle=0;fontFamily=Times New Roman;fontSize=12;verticalAlign=middle;align=right;" parent="1" vertex="1">
          <mxGeometry x="340" y="50" width="30" height="20" as="geometry" />
        </mxCell>
        <mxCell id="D2A4vbr5BBzfwMiu7smM-89" style="edgeStyle=orthogonalEdgeStyle;rounded=0;orthogonalLoop=1;jettySize=auto;html=1;exitX=1;exitY=0.5;exitDx=0;exitDy=0;strokeColor=#000000;" parent="1" edge="1">
          <mxGeometry relative="1" as="geometry">
            <mxPoint x="370" y="80.5" as="sourcePoint" />
            <mxPoint x="390" y="81.5" as="targetPoint" />
          </mxGeometry>
        </mxCell>
        <mxCell id="D2A4vbr5BBzfwMiu7smM-88" value="&lt;h1 style=&quot;margin-top: 0px; font-size: 12px;&quot;&gt;0&lt;/h1&gt;" style="text;html=1;whiteSpace=wrap;overflow=hidden;rounded=0;fontColor=#000000;fontStyle=0;fontFamily=Times New Roman;fontSize=12;verticalAlign=middle;align=right;" parent="1" vertex="1">
          <mxGeometry x="340" y="70" width="30" height="20" as="geometry" />
        </mxCell>
        <mxCell id="D2A4vbr5BBzfwMiu7smM-91" style="edgeStyle=orthogonalEdgeStyle;rounded=0;orthogonalLoop=1;jettySize=auto;html=1;exitX=1;exitY=0.5;exitDx=0;exitDy=0;strokeColor=#000000;" parent="1" edge="1">
          <mxGeometry relative="1" as="geometry">
            <mxPoint x="380" y="180.5" as="sourcePoint" />
            <mxPoint x="400" y="181.5" as="targetPoint" />
          </mxGeometry>
        </mxCell>
        <mxCell id="D2A4vbr5BBzfwMiu7smM-92" style="edgeStyle=orthogonalEdgeStyle;rounded=0;orthogonalLoop=1;jettySize=auto;html=1;exitX=1;exitY=0.5;exitDx=0;exitDy=0;strokeColor=#000000;" parent="1" edge="1">
          <mxGeometry relative="1" as="geometry">
            <mxPoint x="370" y="60.5" as="sourcePoint" />
            <mxPoint x="390" y="61.5" as="targetPoint" />
          </mxGeometry>
        </mxCell>
        <mxCell id="D2A4vbr5BBzfwMiu7smM-93" style="edgeStyle=orthogonalEdgeStyle;rounded=0;orthogonalLoop=1;jettySize=auto;html=1;exitX=1;exitY=0.5;exitDx=0;exitDy=0;strokeColor=#000000;" parent="1" edge="1">
          <mxGeometry relative="1" as="geometry">
            <mxPoint x="380" y="160.5" as="sourcePoint" />
            <mxPoint x="400" y="161.5" as="targetPoint" />
          </mxGeometry>
        </mxCell>
        <mxCell id="D2A4vbr5BBzfwMiu7smM-94" style="edgeStyle=orthogonalEdgeStyle;rounded=0;orthogonalLoop=1;jettySize=auto;html=1;exitX=1;exitY=0.5;exitDx=0;exitDy=0;strokeColor=#000000;" parent="1" edge="1">
          <mxGeometry relative="1" as="geometry">
            <mxPoint x="370" y="100.5" as="sourcePoint" />
            <mxPoint x="390" y="101.5" as="targetPoint" />
          </mxGeometry>
        </mxCell>
        <mxCell id="D2A4vbr5BBzfwMiu7smM-95" value="&lt;h1 style=&quot;margin-top: 0px; font-size: 12px;&quot;&gt;0&lt;/h1&gt;" style="text;html=1;whiteSpace=wrap;overflow=hidden;rounded=0;fontColor=#000000;fontStyle=0;fontFamily=Times New Roman;fontSize=12;verticalAlign=middle;align=right;" parent="1" vertex="1">
          <mxGeometry x="490" y="181" width="10" height="20" as="geometry" />
        </mxCell>
        <mxCell id="D2A4vbr5BBzfwMiu7smM-98" style="edgeStyle=orthogonalEdgeStyle;rounded=0;orthogonalLoop=1;jettySize=auto;html=1;exitX=1;exitY=0.5;exitDx=0;exitDy=0;strokeColor=#000000;" parent="1" edge="1">
          <mxGeometry relative="1" as="geometry">
            <mxPoint x="470" y="80.5" as="sourcePoint" />
            <mxPoint x="490" y="81.5" as="targetPoint" />
          </mxGeometry>
        </mxCell>
        <mxCell id="D2A4vbr5BBzfwMiu7smM-100" style="edgeStyle=orthogonalEdgeStyle;rounded=0;orthogonalLoop=1;jettySize=auto;html=1;exitX=1;exitY=0.5;exitDx=0;exitDy=0;strokeColor=#000000;" parent="1" edge="1">
          <mxGeometry relative="1" as="geometry">
            <mxPoint x="470" y="210.5" as="sourcePoint" />
            <mxPoint x="490" y="211.5" as="targetPoint" />
          </mxGeometry>
        </mxCell>
        <mxCell id="D2A4vbr5BBzfwMiu7smM-101" style="edgeStyle=orthogonalEdgeStyle;rounded=0;orthogonalLoop=1;jettySize=auto;html=1;exitX=1;exitY=0.5;exitDx=0;exitDy=0;strokeColor=#000000;" parent="1" edge="1">
          <mxGeometry relative="1" as="geometry">
            <mxPoint x="470" y="60.5" as="sourcePoint" />
            <mxPoint x="490" y="61.5" as="targetPoint" />
          </mxGeometry>
        </mxCell>
        <mxCell id="D2A4vbr5BBzfwMiu7smM-102" style="edgeStyle=orthogonalEdgeStyle;rounded=0;orthogonalLoop=1;jettySize=auto;html=1;exitX=1;exitY=0.5;exitDx=0;exitDy=0;strokeColor=#000000;" parent="1" edge="1">
          <mxGeometry relative="1" as="geometry">
            <mxPoint x="470" y="190.5" as="sourcePoint" />
            <mxPoint x="490" y="191.5" as="targetPoint" />
          </mxGeometry>
        </mxCell>
        <mxCell id="D2A4vbr5BBzfwMiu7smM-103" style="edgeStyle=orthogonalEdgeStyle;rounded=0;orthogonalLoop=1;jettySize=auto;html=1;exitX=1;exitY=0.5;exitDx=0;exitDy=0;strokeColor=#000000;" parent="1" edge="1">
          <mxGeometry relative="1" as="geometry">
            <mxPoint x="470" y="100.5" as="sourcePoint" />
            <mxPoint x="490" y="101.5" as="targetPoint" />
          </mxGeometry>
        </mxCell>
        <mxCell id="D2A4vbr5BBzfwMiu7smM-104" value="&lt;h1 style=&quot;margin-top: 0px; font-size: 12px;&quot;&gt;0&lt;/h1&gt;" style="text;html=1;whiteSpace=wrap;overflow=hidden;rounded=0;fontColor=#000000;fontStyle=0;fontFamily=Times New Roman;fontSize=12;verticalAlign=middle;align=right;" parent="1" vertex="1">
          <mxGeometry x="490" y="50" width="10" height="20" as="geometry" />
        </mxCell>
        <mxCell id="D2A4vbr5BBzfwMiu7smM-105" value="&lt;h1 style=&quot;margin-top: 0px; font-size: 12px;&quot;&gt;0&lt;/h1&gt;" style="text;html=1;whiteSpace=wrap;overflow=hidden;rounded=0;fontColor=#000000;fontStyle=0;fontFamily=Times New Roman;fontSize=12;verticalAlign=middle;align=right;" parent="1" vertex="1">
          <mxGeometry x="490" y="70" width="10" height="20" as="geometry" />
        </mxCell>
        <mxCell id="D2A4vbr5BBzfwMiu7smM-106" value="&lt;h1 style=&quot;margin-top: 0px; font-size: 12px;&quot;&gt;0&lt;/h1&gt;" style="text;html=1;whiteSpace=wrap;overflow=hidden;rounded=0;fontColor=#000000;fontStyle=0;fontFamily=Times New Roman;fontSize=12;verticalAlign=middle;align=right;" parent="1" vertex="1">
          <mxGeometry x="490" y="90" width="10" height="20" as="geometry" />
        </mxCell>
        <mxCell id="D2A4vbr5BBzfwMiu7smM-107" value="&lt;h1 style=&quot;margin-top: 0px; font-size: 12px;&quot;&gt;0&lt;/h1&gt;" style="text;html=1;whiteSpace=wrap;overflow=hidden;rounded=0;fontColor=#000000;fontStyle=0;fontFamily=Times New Roman;fontSize=12;verticalAlign=middle;align=right;" parent="1" vertex="1">
          <mxGeometry x="490" y="201" width="10" height="20" as="geometry" />
        </mxCell>
        <mxCell id="D2A4vbr5BBzfwMiu7smM-108" value="&lt;font color=&quot;#000000&quot; face=&quot;Times New Roman&quot;&gt;&lt;i&gt;0&lt;/i&gt;&lt;/font&gt;" style="rounded=0;whiteSpace=wrap;html=1;strokeColor=#000000;fillColor=#E6E6E6;" parent="1" vertex="1">
          <mxGeometry x="390" y="111" width="20" height="20" as="geometry" />
        </mxCell>
        <mxCell id="D2A4vbr5BBzfwMiu7smM-109" value="&lt;font color=&quot;#000000&quot; face=&quot;Times New Roman&quot;&gt;&lt;i&gt;0&lt;/i&gt;&lt;/font&gt;" style="rounded=0;whiteSpace=wrap;html=1;strokeColor=#000000;fillColor=#E6E6E6;" parent="1" vertex="1">
          <mxGeometry x="410" y="111" width="20" height="20" as="geometry" />
        </mxCell>
        <mxCell id="D2A4vbr5BBzfwMiu7smM-110" value="&lt;font color=&quot;#000000&quot; face=&quot;Times New Roman&quot;&gt;&lt;i&gt;1&lt;/i&gt;&lt;/font&gt;" style="rounded=0;whiteSpace=wrap;html=1;strokeColor=#000000;fillColor=#E6E6E6;" parent="1" vertex="1">
          <mxGeometry x="430" y="111" width="20" height="20" as="geometry" />
        </mxCell>
        <mxCell id="D2A4vbr5BBzfwMiu7smM-111" value="&lt;font color=&quot;#000000&quot; face=&quot;Times New Roman&quot;&gt;&lt;i&gt;0&lt;/i&gt;&lt;/font&gt;" style="rounded=0;whiteSpace=wrap;html=1;strokeColor=#000000;fillColor=#E6E6E6;" parent="1" vertex="1">
          <mxGeometry x="450" y="111" width="20" height="20" as="geometry" />
        </mxCell>
        <mxCell id="D2A4vbr5BBzfwMiu7smM-112" style="edgeStyle=orthogonalEdgeStyle;rounded=0;orthogonalLoop=1;jettySize=auto;html=1;exitX=1;exitY=0.5;exitDx=0;exitDy=0;strokeColor=#000000;" parent="1" edge="1">
          <mxGeometry relative="1" as="geometry">
            <mxPoint x="370" y="120.5" as="sourcePoint" />
            <mxPoint x="390" y="121.5" as="targetPoint" />
          </mxGeometry>
        </mxCell>
        <mxCell id="D2A4vbr5BBzfwMiu7smM-113" style="edgeStyle=orthogonalEdgeStyle;rounded=0;orthogonalLoop=1;jettySize=auto;html=1;exitX=1;exitY=0.5;exitDx=0;exitDy=0;strokeColor=#000000;" parent="1" edge="1">
          <mxGeometry relative="1" as="geometry">
            <mxPoint x="470" y="120.5" as="sourcePoint" />
            <mxPoint x="490" y="121.5" as="targetPoint" />
          </mxGeometry>
        </mxCell>
        <mxCell id="D2A4vbr5BBzfwMiu7smM-114" value="&lt;h1 style=&quot;margin-top: 0px; font-size: 12px;&quot;&gt;1&lt;/h1&gt;" style="text;html=1;whiteSpace=wrap;overflow=hidden;rounded=0;fontColor=#000000;fontStyle=0;fontFamily=Times New Roman;fontSize=12;verticalAlign=middle;align=right;" parent="1" vertex="1">
          <mxGeometry x="490" y="110" width="10" height="20" as="geometry" />
        </mxCell>
        <mxCell id="aor_gYbChQD-pghPs2fc-12" value="" style="edgeStyle=orthogonalEdgeStyle;rounded=0;orthogonalLoop=1;jettySize=auto;html=1;" edge="1" parent="1" source="aor_gYbChQD-pghPs2fc-10" target="aor_gYbChQD-pghPs2fc-11">
          <mxGeometry relative="1" as="geometry" />
        </mxCell>
        <mxCell id="aor_gYbChQD-pghPs2fc-10" value="0000" style="ellipse;whiteSpace=wrap;html=1;aspect=fixed;fillColor=#FFFFFF;strokeColor=#000000;fontColor=#000000;" vertex="1" parent="1">
          <mxGeometry x="120" y="320" width="40" height="40" as="geometry" />
        </mxCell>
        <mxCell id="aor_gYbChQD-pghPs2fc-11" value="0000" style="ellipse;whiteSpace=wrap;html=1;aspect=fixed;fillColor=#FFFFFF;strokeColor=#000000;fontColor=#000000;" vertex="1" parent="1">
          <mxGeometry x="240" y="320" width="40" height="40" as="geometry" />
        </mxCell>
      </root>
    </mxGraphModel>
  </diagram>
</mxfile>
